<svg version="1" xmlns="http://www.w3.org/2000/svg" width="682.667" height="682.667" viewBox="0 0 512.000000 512.000000"><path d="M0 256v256h512V0H0v256zM403.2 94.3c6.4 3.1 10.7 7.5 14.2 14.5 4.6 9.1 4.8 11.9 4.4 75.2l-.3 59.5-2.3 5.8c-3.3 8.2-7.9 13.7-14.2 17.2l-5.5 3-31.3.3-31.3.3.3 56.2c.3 51.4.5 56.7 2.2 61.7 3.3 9.9 11.2 15 23.2 15h3.5l-.3 4.2-.3 4.3h-184v-8l7.2-.7c7.9-.8 11.6-2.3 14.9-6 6.5-7 7.4-13.8 7.4-54.1V310h-70.7l-5.1 12.7c-2.8 7.1-8.1 20.2-11.8 29.3-6.5 15.7-6.8 17-7.2 26.1-.4 8.2-.1 10.3 1.8 14.6 2.6 6.1 4.5 8 9.7 9.8 3.5 1.2 3.8 1.6 3.8 5.2v3.8l-34.2.3-34.3.2v-4.4c0-4.3 0-4.3 4.1-5 7.7-1.2 13.2-5.1 21.1-14.8 10.3-12.7 12.2-17.1 76.5-179.3 36.6-92.3 33.6-84.2 33.7-92.8.1-7.8.1-7.9-3.6-11.2-2.8-2.6-4.9-3.6-8.7-4.1-5.1-.7-5.1-.7-5.1-4.4 0-2 .3-4 .7-4.4.4-.3 49.1-.5 108.2-.4l107.6.3 5.7 2.8z"/><path d="M265.4 102c-4.7 1.5-9 7-10.3 13.2-.8 3.7-1.1 44.9-.9 139.8.3 132.2.3 134.6 2.3 138.5 3.8 7.5 12.4 10.7 22.9 8.5 6-1.2 10.6-5.2 12.5-10.9 1.4-4.2 1.5-270.5.1-276.5-1-4.5-3.4-8.1-7.3-11-3.1-2.3-14-3.2-19.3-1.6zm71.6 78v77l19.1-.2 19.2-.3 2.1-2.8c2.1-2.8 2.1-3.5 2.4-68.5.2-36.1 0-68.1-.3-71.1-.5-4.1-1.4-6.1-3.5-8.3l-2.8-2.8H337v77zm-130.8-30.8c-2.3 5.7-16.6 40.9-31.8 78.3-15.1 37.4-27.8 68.6-28.1 69.2-.4 1 6.4 1.3 32.1 1.3H211v-79.5c0-43.7-.1-79.5-.3-79.5-.2 0-2.2 4.6-4.5 10.2z"/></svg>