<?xml version="1.0" standalone="no"?>
<!DOCTYPE svg PUBLIC "-//W3C//DTD SVG 20010904//EN"
 "http://www.w3.org/TR/2001/REC-SVG-20010904/DTD/svg10.dtd">
<svg version="1.0" xmlns="http://www.w3.org/2000/svg"
 width="512.000000pt" height="512.000000pt" viewBox="0 0 512.000000 512.000000"
 preserveAspectRatio="xMidYMid meet">
<metadata>
Created by potrace 1.11, written by Peter Selinger 2001-2013
</metadata>
<g transform="translate(0.000000,512.000000) scale(0.100000,-0.100000)"
fill="#000000" stroke="none">
<path d="M0 2560 l0 -2560 2560 0 2560 0 0 2560 0 2560 -2560 0 -2560 0 0
-2560z m4032 1617 c64 -31 107 -75 142 -145 46 -91 48 -119 44 -752 l-3 -595
-23 -58 c-33 -82 -79 -137 -142 -172 l-55 -30 -313 -3 -313 -3 3 -562 c3 -514
5 -567 22 -617 33 -99 112 -150 232 -150 l35 0 -3 -42 -3 -43 -920 0 -920 0 0
40 0 40 72 7 c79 8 116 23 149 60 65 70 74 138 74 541 l0 327 -353 0 -354 0
-51 -127 c-28 -71 -81 -202 -118 -293 -65 -157 -68 -170 -72 -261 -4 -82 -1
-103 18 -146 26 -61 45 -80 97 -98 35 -12 38 -16 38 -52 l0 -38 -342 -3 -343
-2 0 44 c0 43 0 43 41 50 77 12 132 51 211 148 103 127 122 171 765 1793 366
923 336 842 337 928 1 78 1 79 -36 112 -28 26 -49 36 -87 41 -51 7 -51 7 -51
44 0 20 3 40 7 44 4 3 491 5 1082 4 l1076 -3 57 -28z"/>
<path d="M2654 4100 c-47 -15 -90 -70 -103 -132 -8 -37 -11 -449 -9 -1398 3
-1322 3 -1346 23 -1385 38 -75 124 -107 229 -85 60 12 106 52 125 109 14 42
15 2705 1 2765 -10 45 -34 81 -73 110 -31 23 -140 32 -193 16z"/>
<path d="M3370 3320 l0 -770 191 2 192 3 21 28 c21 28 21 35 24 685 2 361 0
681 -3 711 -5 41 -14 61 -35 83 l-28 28 -181 0 -181 0 0 -770z"/>
<path d="M2062 3628 c-23 -57 -166 -409 -318 -783 -151 -374 -278 -686 -281
-692 -4 -10 64 -13 321 -13 l326 0 0 795 c0 437 -1 795 -3 795 -2 0 -22 -46
-45 -102z"/>
</g>
</svg>
