<svg width="11" height="11" viewBox="0 0 11 11" version="1.1" xmlns="http://www.w3.org/2000/svg" xmlns:xlink="http://www.w3.org/1999/xlink">
<title>Vector</title>
<desc>Created using Figma</desc>
<g id="Canvas" transform="translate(-140 -21)">
<g id="Vector">
<use xlink:href="#path0_fill" transform="translate(140.543 21.525)" fill="#1D1D1B"/>
</g>
</g>
<defs>
<path id="path0_fill" d="M 9.57501 7.77499L 6.77499 4.975L 9.57501 2.17501C 10.075 1.67501 10.075 0.874994 9.57501 0.374994C 9.07501 -0.125006 8.27499 -0.125006 7.77499 0.374994L 4.97501 3.17501L 2.17499 0.374994C 1.67499 -0.125006 0.875 -0.125006 0.375 0.374994C -0.125 0.874994 -0.125 1.67501 0.375 2.17501L 3.17499 4.975L 0.375 7.77499C -0.125 8.27499 -0.125 9.07501 0.375 9.57501C 0.575 9.77501 0.974994 9.975 1.27499 9.975C 1.57499 9.975 1.97499 9.87501 2.17499 9.57501L 4.97501 6.77499L 7.77499 9.57501C 7.97499 9.77501 8.37499 9.975 8.67499 9.975C 8.97499 9.975 9.37501 9.87501 9.57501 9.57501C 10.075 9.07501 10.075 8.27499 9.57501 7.77499Z"/>
</defs>
</svg>
