<svg width="11" height="11" viewBox="0 0 11 11" xmlns="http://www.w3.org/2000/svg" xmlns:xlink="http://www.w3.org/1999/xlink"><title>Vector</title><desc>Created using Figma</desc><use xlink:href="#a" transform="translate(.543 .525)" fill="#1D1D1B"/><defs><path id="a" d="M9.575 7.775l-2.8-2.8 2.8-2.8c.5-.5.5-1.3 0-1.8s-1.3-.5-1.8 0l-2.8 2.8-2.8-2.8c-.5-.5-1.3-.5-1.8 0s-.5 1.3 0 1.8l2.8 2.8-2.8 2.8c-.5.5-.5 1.3 0 1.8.2.2.6.4.9.4.3 0 .7-.1.9-.4l2.8-2.8 2.8 2.8c.2.2.6.4.9.4.3 0 .7-.1.9-.4.5-.5.5-1.3 0-1.8z"/></defs></svg>